# xmcd CD database file
#
# Track frame offsets:
#	150
#	12212
#	46797
#	59069
#	98692
#	129225
#	172173
#	194518
#	240086
#
# Disc length: 3663 seconds
#
# Revision: 0
# Processed by: cddbd v1.5.2PL0 Copyright (c) Steve Scherf et al.
# Submitted via: CDex 1.51
#
DISCID=6e0e4d09
DTITLE=Kjell Jansson Quartet - A tribute to Duke Ellington
DYEAR=2008
DGENRE=Jazz
TTITLE0=Ad lib on Nippon part 1
TTITLE1=Ad lib on Nippon part 2
TTITLE2=Ad lib on Nippon part 3
TTITLE3=Ad lib on Nippon part 4
TTITLE4=The star-Crossed lovers
TTITLE5=Take the Coltrane
TTITLE6=In a sentimental mood
TTITLE7=Take the A train
TTITLE8=Sophisticated lady
EXTD=YEAR: 2008
EXTT0=
EXTT1=
EXTT2=
EXTT3=
EXTT4=
EXTT5=
EXTT6=
EXTT7=
EXTT8=
PLAYORDER=
